<mxfile host="Electron" agent="Mozilla/5.0 (Windows NT 10.0; Win64; x64) AppleWebKit/537.36 (KHTML, like Gecko) draw.io/26.0.16 Chrome/132.0.6834.196 Electron/34.2.0 Safari/537.36" version="26.0.16">
  <diagram name="Page-1" id="qZybTjs-N-7uPFmcDwUn">
    <mxGraphModel dx="2136" dy="1506" grid="1" gridSize="10" guides="1" tooltips="1" connect="1" arrows="1" fold="1" page="1" pageScale="1" pageWidth="1100" pageHeight="850" background="#ffffff" math="0" shadow="1">
      <root>
        <mxCell id="0" />
        <mxCell id="1" parent="0" />
        <mxCell id="zWWZtWSFwz_C1q-5I-bs-9" value="AWS Cloud" style="points=[[0,0],[0.25,0],[0.5,0],[0.75,0],[1,0],[1,0.25],[1,0.5],[1,0.75],[1,1],[0.75,1],[0.5,1],[0.25,1],[0,1],[0,0.75],[0,0.5],[0,0.25]];outlineConnect=0;gradientColor=none;html=1;whiteSpace=wrap;fontSize=12;fontStyle=0;container=1;pointerEvents=0;collapsible=0;recursiveResize=0;shape=mxgraph.aws4.group;grIcon=mxgraph.aws4.group_aws_cloud_alt;strokeColor=#232F3E;fillColor=none;verticalAlign=top;align=left;spacingLeft=30;fontColor=#232F3E;dashed=0;" parent="1" vertex="1">
          <mxGeometry x="-260" y="-740" width="1200" height="990" as="geometry" />
        </mxCell>
        <mxCell id="Ro--WaHBfZd03FYafhZy-1" value="AWS Account" style="points=[[0,0],[0.25,0],[0.5,0],[0.75,0],[1,0],[1,0.25],[1,0.5],[1,0.75],[1,1],[0.75,1],[0.5,1],[0.25,1],[0,1],[0,0.75],[0,0.5],[0,0.25]];outlineConnect=0;gradientColor=none;html=1;whiteSpace=wrap;fontSize=12;fontStyle=0;container=1;pointerEvents=0;collapsible=0;recursiveResize=0;shape=mxgraph.aws4.group;grIcon=mxgraph.aws4.group_account;strokeColor=#CD2264;fillColor=none;verticalAlign=top;align=left;spacingLeft=30;fontColor=#CD2264;dashed=0;" parent="zWWZtWSFwz_C1q-5I-bs-9" vertex="1">
          <mxGeometry x="50" y="30" width="1080" height="910" as="geometry" />
        </mxCell>
        <mxCell id="zWWZtWSFwz_C1q-5I-bs-10" value="VPC" style="points=[[0,0],[0.25,0],[0.5,0],[0.75,0],[1,0],[1,0.25],[1,0.5],[1,0.75],[1,1],[0.75,1],[0.5,1],[0.25,1],[0,1],[0,0.75],[0,0.5],[0,0.25]];outlineConnect=0;gradientColor=none;html=1;whiteSpace=wrap;fontSize=12;fontStyle=0;container=1;pointerEvents=0;collapsible=0;recursiveResize=0;shape=mxgraph.aws4.group;grIcon=mxgraph.aws4.group_vpc2;strokeColor=#8C4FFF;fillColor=none;verticalAlign=top;align=left;spacingLeft=30;fontColor=#AAB7B8;dashed=0;" parent="Ro--WaHBfZd03FYafhZy-1" vertex="1">
          <mxGeometry x="40" y="60" width="970" height="740" as="geometry" />
        </mxCell>
        <mxCell id="zWWZtWSFwz_C1q-5I-bs-13" value="Region" style="points=[[0,0],[0.25,0],[0.5,0],[0.75,0],[1,0],[1,0.25],[1,0.5],[1,0.75],[1,1],[0.75,1],[0.5,1],[0.25,1],[0,1],[0,0.75],[0,0.5],[0,0.25]];outlineConnect=0;gradientColor=none;html=1;whiteSpace=wrap;fontSize=12;fontStyle=0;container=1;pointerEvents=0;collapsible=0;recursiveResize=0;shape=mxgraph.aws4.group;grIcon=mxgraph.aws4.group_region;strokeColor=#00A4A6;fillColor=none;verticalAlign=top;align=left;spacingLeft=30;fontColor=#147EBA;dashed=1;" parent="zWWZtWSFwz_C1q-5I-bs-10" vertex="1">
          <mxGeometry x="80" y="50" width="872.5" height="670" as="geometry" />
        </mxCell>
        <mxCell id="zWWZtWSFwz_C1q-5I-bs-12" value="Availability Zone" style="fillColor=none;strokeColor=#147EBA;dashed=1;verticalAlign=top;fontStyle=0;fontColor=#147EBA;whiteSpace=wrap;html=1;" parent="zWWZtWSFwz_C1q-5I-bs-13" vertex="1">
          <mxGeometry x="10" y="30" width="330" height="530" as="geometry" />
        </mxCell>
        <mxCell id="zWWZtWSFwz_C1q-5I-bs-15" value="Availability Zone" style="fillColor=none;strokeColor=#147EBA;dashed=1;verticalAlign=top;fontStyle=0;fontColor=#147EBA;whiteSpace=wrap;html=1;" parent="zWWZtWSFwz_C1q-5I-bs-13" vertex="1">
          <mxGeometry x="472.5" y="30" width="340" height="540" as="geometry" />
        </mxCell>
        <mxCell id="zWWZtWSFwz_C1q-5I-bs-17" value="Public subnet" style="points=[[0,0],[0.25,0],[0.5,0],[0.75,0],[1,0],[1,0.25],[1,0.5],[1,0.75],[1,1],[0.75,1],[0.5,1],[0.25,1],[0,1],[0,0.75],[0,0.5],[0,0.25]];outlineConnect=0;gradientColor=none;html=1;whiteSpace=wrap;fontSize=12;fontStyle=0;container=1;pointerEvents=0;collapsible=0;recursiveResize=0;shape=mxgraph.aws4.group;grIcon=mxgraph.aws4.group_security_group;grStroke=0;strokeColor=#7AA116;fillColor=#F2F6E8;verticalAlign=top;align=left;spacingLeft=30;fontColor=#248814;dashed=0;" parent="zWWZtWSFwz_C1q-5I-bs-13" vertex="1">
          <mxGeometry x="487.5" y="90" width="310" height="150" as="geometry" />
        </mxCell>
        <mxCell id="zWWZtWSFwz_C1q-5I-bs-19" value="Public subnet" style="points=[[0,0],[0.25,0],[0.5,0],[0.75,0],[1,0],[1,0.25],[1,0.5],[1,0.75],[1,1],[0.75,1],[0.5,1],[0.25,1],[0,1],[0,0.75],[0,0.5],[0,0.25]];outlineConnect=0;gradientColor=none;html=1;whiteSpace=wrap;fontSize=12;fontStyle=0;container=1;pointerEvents=0;collapsible=0;recursiveResize=0;shape=mxgraph.aws4.group;grIcon=mxgraph.aws4.group_security_group;grStroke=0;strokeColor=#7AA116;fillColor=#F2F6E8;verticalAlign=top;align=left;spacingLeft=30;fontColor=#248814;dashed=0;" parent="zWWZtWSFwz_C1q-5I-bs-13" vertex="1">
          <mxGeometry x="30" y="90" width="260" height="150" as="geometry" />
        </mxCell>
        <mxCell id="zWWZtWSFwz_C1q-5I-bs-20" value="Private subnet" style="points=[[0,0],[0.25,0],[0.5,0],[0.75,0],[1,0],[1,0.25],[1,0.5],[1,0.75],[1,1],[0.75,1],[0.5,1],[0.25,1],[0,1],[0,0.75],[0,0.5],[0,0.25]];outlineConnect=0;gradientColor=none;html=1;whiteSpace=wrap;fontSize=12;fontStyle=0;container=1;pointerEvents=0;collapsible=0;recursiveResize=0;shape=mxgraph.aws4.group;grIcon=mxgraph.aws4.group_security_group;grStroke=0;strokeColor=#00A4A6;fillColor=#E6F6F7;verticalAlign=top;align=left;spacingLeft=30;fontColor=#147EBA;dashed=0;" parent="zWWZtWSFwz_C1q-5I-bs-13" vertex="1">
          <mxGeometry x="487.5" y="269.5" width="310" height="139" as="geometry" />
        </mxCell>
        <mxCell id="zWWZtWSFwz_C1q-5I-bs-22" value="Private subnet" style="points=[[0,0],[0.25,0],[0.5,0],[0.75,0],[1,0],[1,0.25],[1,0.5],[1,0.75],[1,1],[0.75,1],[0.5,1],[0.25,1],[0,1],[0,0.75],[0,0.5],[0,0.25]];outlineConnect=0;gradientColor=none;html=1;whiteSpace=wrap;fontSize=12;fontStyle=0;container=1;pointerEvents=0;collapsible=0;recursiveResize=0;shape=mxgraph.aws4.group;grIcon=mxgraph.aws4.group_security_group;grStroke=0;strokeColor=#00A4A6;fillColor=#E6F6F7;verticalAlign=top;align=left;spacingLeft=30;fontColor=#147EBA;dashed=0;" parent="zWWZtWSFwz_C1q-5I-bs-13" vertex="1">
          <mxGeometry x="30" y="261" width="260" height="139" as="geometry" />
        </mxCell>
        <mxCell id="KVfcVRK3_kg-hZoc3Lzv-2" value="" style="sketch=0;points=[[0,0,0],[0.25,0,0],[0.5,0,0],[0.75,0,0],[1,0,0],[0,1,0],[0.25,1,0],[0.5,1,0],[0.75,1,0],[1,1,0],[0,0.25,0],[0,0.5,0],[0,0.75,0],[1,0.25,0],[1,0.5,0],[1,0.75,0]];outlineConnect=0;fontColor=#232F3E;fillColor=#ED7100;strokeColor=#ffffff;dashed=0;verticalLabelPosition=bottom;verticalAlign=top;align=center;html=1;fontSize=12;fontStyle=0;aspect=fixed;shape=mxgraph.aws4.resourceIcon;resIcon=mxgraph.aws4.ec2;" parent="zWWZtWSFwz_C1q-5I-bs-22" vertex="1">
          <mxGeometry x="200" y="58.5" width="39" height="39" as="geometry" />
        </mxCell>
        <mxCell id="79KChEGmRv6Rq6miHfK4-35" value="" style="edgeStyle=none;curved=1;rounded=0;orthogonalLoop=1;jettySize=auto;html=1;fontSize=12;startSize=8;endSize=8;" parent="zWWZtWSFwz_C1q-5I-bs-13" source="KVfcVRK3_kg-hZoc3Lzv-1" edge="1">
          <mxGeometry relative="1" as="geometry">
            <mxPoint x="400" y="480" as="targetPoint" />
          </mxGeometry>
        </mxCell>
        <mxCell id="KVfcVRK3_kg-hZoc3Lzv-1" value="" style="sketch=0;points=[[0,0,0],[0.25,0,0],[0.5,0,0],[0.75,0,0],[1,0,0],[0,1,0],[0.25,1,0],[0.5,1,0],[0.75,1,0],[1,1,0],[0,0.25,0],[0,0.5,0],[0,0.75,0],[1,0.25,0],[1,0.5,0],[1,0.75,0]];outlineConnect=0;fontColor=#232F3E;fillColor=#ED7100;strokeColor=#ffffff;dashed=0;verticalLabelPosition=bottom;verticalAlign=top;align=center;html=1;fontSize=12;fontStyle=0;aspect=fixed;shape=mxgraph.aws4.resourceIcon;resIcon=mxgraph.aws4.ec2;" parent="zWWZtWSFwz_C1q-5I-bs-13" vertex="1">
          <mxGeometry x="510" y="321.75" width="34.5" height="34.5" as="geometry" />
        </mxCell>
        <mxCell id="THCJKn3xnFxvYBGwDqAV-10" value="" style="sketch=0;outlineConnect=0;fontColor=#232F3E;gradientColor=none;fillColor=#DD344C;strokeColor=none;dashed=0;verticalLabelPosition=bottom;verticalAlign=top;align=center;html=1;fontSize=12;fontStyle=0;aspect=fixed;pointerEvents=1;shape=mxgraph.aws4.role;" parent="zWWZtWSFwz_C1q-5I-bs-13" vertex="1">
          <mxGeometry x="210" y="307.75" width="24.82" height="14" as="geometry" />
        </mxCell>
        <mxCell id="nn1KmG_tg4tDZL_l4DAi-1" value="Auto Scaling group" style="points=[[0,0],[0.25,0],[0.5,0],[0.75,0],[1,0],[1,0.25],[1,0.5],[1,0.75],[1,1],[0.75,1],[0.5,1],[0.25,1],[0,1],[0,0.75],[0,0.5],[0,0.25]];outlineConnect=0;gradientColor=none;html=1;whiteSpace=wrap;fontSize=12;fontStyle=0;container=1;pointerEvents=0;collapsible=0;recursiveResize=0;shape=mxgraph.aws4.groupCenter;grIcon=mxgraph.aws4.group_auto_scaling_group;grStroke=1;strokeColor=#D86613;fillColor=none;verticalAlign=top;align=center;fontColor=#D86613;dashed=1;spacingTop=25;" parent="zWWZtWSFwz_C1q-5I-bs-13" vertex="1">
          <mxGeometry x="210" y="300" width="350" height="100" as="geometry" />
        </mxCell>
        <mxCell id="THCJKn3xnFxvYBGwDqAV-9" value="" style="sketch=0;outlineConnect=0;fontColor=#232F3E;gradientColor=none;fillColor=#DD344C;strokeColor=none;dashed=0;verticalLabelPosition=bottom;verticalAlign=top;align=center;html=1;fontSize=12;fontStyle=0;aspect=fixed;pointerEvents=1;shape=mxgraph.aws4.role;" parent="nn1KmG_tg4tDZL_l4DAi-1" vertex="1">
          <mxGeometry x="290" y="7.75" width="24.82" height="14" as="geometry" />
        </mxCell>
        <mxCell id="nn1KmG_tg4tDZL_l4DAi-13" value="&lt;b&gt;&lt;i&gt;App tier&lt;/i&gt;&lt;/b&gt;" style="text;html=1;align=center;verticalAlign=middle;resizable=0;points=[];autosize=1;strokeColor=none;fillColor=none;fontSize=16;" parent="nn1KmG_tg4tDZL_l4DAi-1" vertex="1">
          <mxGeometry x="150" y="70" width="80" height="30" as="geometry" />
        </mxCell>
        <mxCell id="nn1KmG_tg4tDZL_l4DAi-3" value="Private subnet" style="points=[[0,0],[0.25,0],[0.5,0],[0.75,0],[1,0],[1,0.25],[1,0.5],[1,0.75],[1,1],[0.75,1],[0.5,1],[0.25,1],[0,1],[0,0.75],[0,0.5],[0,0.25]];outlineConnect=0;gradientColor=none;html=1;whiteSpace=wrap;fontSize=12;fontStyle=0;container=1;pointerEvents=0;collapsible=0;recursiveResize=0;shape=mxgraph.aws4.group;grIcon=mxgraph.aws4.group_security_group;grStroke=0;strokeColor=#00A4A6;fillColor=#E6F6F7;verticalAlign=top;align=left;spacingLeft=30;fontColor=#147EBA;dashed=0;" parent="zWWZtWSFwz_C1q-5I-bs-13" vertex="1">
          <mxGeometry x="487.5" y="420" width="310" height="139" as="geometry" />
        </mxCell>
        <mxCell id="nn1KmG_tg4tDZL_l4DAi-8" value="Private subnet" style="points=[[0,0],[0.25,0],[0.5,0],[0.75,0],[1,0],[1,0.25],[1,0.5],[1,0.75],[1,1],[0.75,1],[0.5,1],[0.25,1],[0,1],[0,0.75],[0,0.5],[0,0.25]];outlineConnect=0;gradientColor=none;html=1;whiteSpace=wrap;fontSize=12;fontStyle=0;container=1;pointerEvents=0;collapsible=0;recursiveResize=0;shape=mxgraph.aws4.group;grIcon=mxgraph.aws4.group_security_group;grStroke=0;strokeColor=#00A4A6;fillColor=#E6F6F7;verticalAlign=top;align=left;spacingLeft=30;fontColor=#147EBA;dashed=0;" parent="zWWZtWSFwz_C1q-5I-bs-13" vertex="1">
          <mxGeometry x="30" y="408.5" width="260" height="139" as="geometry" />
        </mxCell>
        <mxCell id="nn1KmG_tg4tDZL_l4DAi-10" value="Auto Scaling group" style="points=[[0,0],[0.25,0],[0.5,0],[0.75,0],[1,0],[1,0.25],[1,0.5],[1,0.75],[1,1],[0.75,1],[0.5,1],[0.25,1],[0,1],[0,0.75],[0,0.5],[0,0.25]];outlineConnect=0;gradientColor=none;html=1;whiteSpace=wrap;fontSize=12;fontStyle=0;container=1;pointerEvents=0;collapsible=0;recursiveResize=0;shape=mxgraph.aws4.groupCenter;grIcon=mxgraph.aws4.group_auto_scaling_group;grStroke=1;strokeColor=#D86613;fillColor=none;verticalAlign=top;align=center;fontColor=#D86613;dashed=1;spacingTop=25;" parent="zWWZtWSFwz_C1q-5I-bs-13" vertex="1">
          <mxGeometry x="220" y="130" width="350" height="90" as="geometry" />
        </mxCell>
        <mxCell id="79KChEGmRv6Rq6miHfK4-1" value="" style="sketch=0;points=[[0,0,0],[0.25,0,0],[0.5,0,0],[0.75,0,0],[1,0,0],[0,1,0],[0.25,1,0],[0.5,1,0],[0.75,1,0],[1,1,0],[0,0.25,0],[0,0.5,0],[0,0.75,0],[1,0.25,0],[1,0.5,0],[1,0.75,0]];outlineConnect=0;fontColor=#232F3E;fillColor=#ED7100;strokeColor=#ffffff;dashed=0;verticalLabelPosition=bottom;verticalAlign=top;align=center;html=1;fontSize=12;fontStyle=0;aspect=fixed;shape=mxgraph.aws4.resourceIcon;resIcon=mxgraph.aws4.ec2;" parent="nn1KmG_tg4tDZL_l4DAi-10" vertex="1">
          <mxGeometry x="20" y="25.5" width="39" height="39" as="geometry" />
        </mxCell>
        <mxCell id="79KChEGmRv6Rq6miHfK4-4" value="&lt;b&gt;&lt;i&gt;Web Tier&lt;/i&gt;&lt;/b&gt;" style="text;html=1;align=center;verticalAlign=middle;resizable=0;points=[];autosize=1;strokeColor=none;fillColor=none;fontSize=16;" parent="nn1KmG_tg4tDZL_l4DAi-10" vertex="1">
          <mxGeometry x="140" y="64.5" width="90" height="30" as="geometry" />
        </mxCell>
        <mxCell id="79KChEGmRv6Rq6miHfK4-45" value="" style="sketch=0;outlineConnect=0;fontColor=#232F3E;gradientColor=none;fillColor=#DD344C;strokeColor=none;dashed=0;verticalLabelPosition=bottom;verticalAlign=top;align=center;html=1;fontSize=12;fontStyle=0;aspect=fixed;pointerEvents=1;shape=mxgraph.aws4.role;" parent="nn1KmG_tg4tDZL_l4DAi-10" vertex="1">
          <mxGeometry x="280" y="11.5" width="24.82" height="14" as="geometry" />
        </mxCell>
        <mxCell id="79KChEGmRv6Rq6miHfK4-47" value="" style="sketch=0;outlineConnect=0;fontColor=#232F3E;gradientColor=none;fillColor=#DD344C;strokeColor=none;dashed=0;verticalLabelPosition=bottom;verticalAlign=top;align=center;html=1;fontSize=12;fontStyle=0;aspect=fixed;pointerEvents=1;shape=mxgraph.aws4.role;" parent="nn1KmG_tg4tDZL_l4DAi-10" vertex="1">
          <mxGeometry x="10" y="11.5" width="24.82" height="14" as="geometry" />
        </mxCell>
        <mxCell id="nn1KmG_tg4tDZL_l4DAi-12" style="edgeStyle=none;curved=1;rounded=0;orthogonalLoop=1;jettySize=auto;html=1;exitX=0.5;exitY=0;exitDx=0;exitDy=0;fontSize=12;startSize=8;endSize=8;" parent="zWWZtWSFwz_C1q-5I-bs-13" source="nn1KmG_tg4tDZL_l4DAi-10" target="nn1KmG_tg4tDZL_l4DAi-10" edge="1">
          <mxGeometry relative="1" as="geometry" />
        </mxCell>
        <mxCell id="79KChEGmRv6Rq6miHfK4-5" value="" style="outlineConnect=0;dashed=0;verticalLabelPosition=bottom;verticalAlign=top;align=center;html=1;shape=mxgraph.aws3.rds_db_instance;fillColor=#2E73B8;gradientColor=none;" parent="zWWZtWSFwz_C1q-5I-bs-13" vertex="1">
          <mxGeometry x="520" y="480" width="30" height="50" as="geometry" />
        </mxCell>
        <mxCell id="79KChEGmRv6Rq6miHfK4-6" value="" style="outlineConnect=0;dashed=0;verticalLabelPosition=bottom;verticalAlign=top;align=center;html=1;shape=mxgraph.aws3.rds_db_instance_standby_multi_az;fillColor=#2E73B8;gradientColor=none;" parent="zWWZtWSFwz_C1q-5I-bs-13" vertex="1">
          <mxGeometry x="234.82" y="470" width="30" height="47.5" as="geometry" />
        </mxCell>
        <mxCell id="79KChEGmRv6Rq6miHfK4-7" value="&lt;font style=&quot;font-size: 13px;&quot;&gt;&lt;b&gt;RDS&amp;nbsp;Master&lt;/b&gt;&lt;/font&gt;" style="text;html=1;align=center;verticalAlign=middle;resizable=0;points=[];autosize=1;strokeColor=none;fillColor=none;fontSize=16;" parent="zWWZtWSFwz_C1q-5I-bs-13" vertex="1">
          <mxGeometry x="485" y="529" width="100" height="30" as="geometry" />
        </mxCell>
        <mxCell id="79KChEGmRv6Rq6miHfK4-8" value="&lt;font style=&quot;font-size: 13px;&quot;&gt;&lt;b&gt;RDS Standby&lt;/b&gt;&lt;/font&gt;&lt;div&gt;&lt;font style=&quot;font-size: 13px;&quot;&gt;&lt;b&gt;&lt;br&gt;&lt;/b&gt;&lt;/font&gt;&lt;/div&gt;" style="text;html=1;align=center;verticalAlign=middle;resizable=0;points=[];autosize=1;strokeColor=none;fillColor=none;fontSize=16;" parent="zWWZtWSFwz_C1q-5I-bs-13" vertex="1">
          <mxGeometry x="190" y="517.5" width="110" height="50" as="geometry" />
        </mxCell>
        <mxCell id="THCJKn3xnFxvYBGwDqAV-13" value="" style="sketch=0;outlineConnect=0;fontColor=#232F3E;gradientColor=none;fillColor=#8C4FFF;strokeColor=none;dashed=0;verticalLabelPosition=bottom;verticalAlign=top;align=center;html=1;fontSize=12;fontStyle=0;aspect=fixed;pointerEvents=1;shape=mxgraph.aws4.application_load_balancer;" parent="zWWZtWSFwz_C1q-5I-bs-13" vertex="1">
          <mxGeometry x="371" y="240" width="48" height="48" as="geometry" />
        </mxCell>
        <mxCell id="79KChEGmRv6Rq6miHfK4-36" value="" style="edgeStyle=none;curved=1;rounded=0;orthogonalLoop=1;jettySize=auto;html=1;fontSize=12;startSize=8;endSize=8;" parent="zWWZtWSFwz_C1q-5I-bs-13" source="KVfcVRK3_kg-hZoc3Lzv-2" edge="1">
          <mxGeometry relative="1" as="geometry">
            <mxPoint x="400" y="480" as="targetPoint" />
          </mxGeometry>
        </mxCell>
        <mxCell id="79KChEGmRv6Rq6miHfK4-39" value="" style="edgeStyle=none;curved=1;rounded=0;orthogonalLoop=1;jettySize=auto;html=1;fontSize=12;startSize=8;endSize=8;" parent="zWWZtWSFwz_C1q-5I-bs-13" source="79KChEGmRv6Rq6miHfK4-2" edge="1">
          <mxGeometry relative="1" as="geometry">
            <mxPoint x="400" y="450" as="targetPoint" />
            <Array as="points">
              <mxPoint x="450" y="390" />
            </Array>
          </mxGeometry>
        </mxCell>
        <mxCell id="oiRX4NmZxwL2EpGezVQN-4" value="" style="edgeStyle=none;curved=1;rounded=0;orthogonalLoop=1;jettySize=auto;html=1;fontSize=12;startSize=8;endSize=8;" edge="1" parent="zWWZtWSFwz_C1q-5I-bs-13">
          <mxGeometry relative="1" as="geometry">
            <mxPoint x="500" y="158.00374384236457" as="sourcePoint" />
            <mxPoint x="418.8902658462971" y="104.32435242344336" as="targetPoint" />
          </mxGeometry>
        </mxCell>
        <mxCell id="79KChEGmRv6Rq6miHfK4-2" value="" style="sketch=0;points=[[0,0,0],[0.25,0,0],[0.5,0,0],[0.75,0,0],[1,0,0],[0,1,0],[0.25,1,0],[0.5,1,0],[0.75,1,0],[1,1,0],[0,0.25,0],[0,0.5,0],[0,0.75,0],[1,0.25,0],[1,0.5,0],[1,0.75,0]];outlineConnect=0;fontColor=#232F3E;fillColor=#ED7100;strokeColor=#ffffff;dashed=0;verticalLabelPosition=bottom;verticalAlign=top;align=center;html=1;fontSize=12;fontStyle=0;aspect=fixed;shape=mxgraph.aws4.resourceIcon;resIcon=mxgraph.aws4.ec2;" parent="zWWZtWSFwz_C1q-5I-bs-13" vertex="1">
          <mxGeometry x="500" y="158" width="34.5" height="34.5" as="geometry" />
        </mxCell>
        <mxCell id="79KChEGmRv6Rq6miHfK4-41" value="" style="edgeStyle=none;curved=1;rounded=0;orthogonalLoop=1;jettySize=auto;html=1;fontSize=12;startSize=8;endSize=8;" parent="zWWZtWSFwz_C1q-5I-bs-13" source="79KChEGmRv6Rq6miHfK4-1" edge="1">
          <mxGeometry relative="1" as="geometry">
            <mxPoint x="400" y="450" as="targetPoint" />
            <Array as="points">
              <mxPoint x="310" y="330" />
            </Array>
          </mxGeometry>
        </mxCell>
        <mxCell id="79KChEGmRv6Rq6miHfK4-42" style="edgeStyle=none;curved=1;rounded=0;orthogonalLoop=1;jettySize=auto;html=1;exitX=0.5;exitY=0;exitDx=0;exitDy=0;fontSize=12;startSize=8;endSize=8;" parent="zWWZtWSFwz_C1q-5I-bs-13" source="nn1KmG_tg4tDZL_l4DAi-1" target="nn1KmG_tg4tDZL_l4DAi-1" edge="1">
          <mxGeometry relative="1" as="geometry" />
        </mxCell>
        <mxCell id="oiRX4NmZxwL2EpGezVQN-1" value="" style="sketch=0;outlineConnect=0;fontColor=#232F3E;gradientColor=none;fillColor=#8C4FFF;strokeColor=none;dashed=0;verticalLabelPosition=bottom;verticalAlign=top;align=center;html=1;fontSize=12;fontStyle=0;aspect=fixed;pointerEvents=1;shape=mxgraph.aws4.route_table;" vertex="1" parent="zWWZtWSFwz_C1q-5I-bs-13">
          <mxGeometry x="382.05" y="80" width="36.95" height="36" as="geometry" />
        </mxCell>
        <mxCell id="oiRX4NmZxwL2EpGezVQN-5" value="" style="edgeStyle=none;curved=1;rounded=0;orthogonalLoop=1;jettySize=auto;html=1;fontSize=12;startSize=8;endSize=8;entryX=-0.004;entryY=0.5;entryDx=0;entryDy=0;entryPerimeter=0;" edge="1" parent="zWWZtWSFwz_C1q-5I-bs-13" source="79KChEGmRv6Rq6miHfK4-1" target="oiRX4NmZxwL2EpGezVQN-1">
          <mxGeometry relative="1" as="geometry" />
        </mxCell>
        <mxCell id="THCJKn3xnFxvYBGwDqAV-1" style="edgeStyle=none;curved=1;rounded=0;orthogonalLoop=1;jettySize=auto;html=1;exitX=1;exitY=0;exitDx=0;exitDy=0;fontSize=12;startSize=8;endSize=8;" parent="zWWZtWSFwz_C1q-5I-bs-10" source="zWWZtWSFwz_C1q-5I-bs-13" target="zWWZtWSFwz_C1q-5I-bs-13" edge="1">
          <mxGeometry relative="1" as="geometry" />
        </mxCell>
        <mxCell id="THCJKn3xnFxvYBGwDqAV-15" value="" style="sketch=0;outlineConnect=0;fontColor=#232F3E;gradientColor=none;fillColor=#8C4FFF;strokeColor=none;dashed=0;verticalLabelPosition=bottom;verticalAlign=top;align=center;html=1;fontSize=12;fontStyle=0;aspect=fixed;pointerEvents=1;shape=mxgraph.aws4.internet_gateway;" parent="zWWZtWSFwz_C1q-5I-bs-10" vertex="1">
          <mxGeometry x="-20" y="270" width="40" height="40" as="geometry" />
        </mxCell>
        <mxCell id="THCJKn3xnFxvYBGwDqAV-14" value="" style="sketch=0;outlineConnect=0;fontColor=#232F3E;gradientColor=none;fillColor=#8C4FFF;strokeColor=none;dashed=0;verticalLabelPosition=bottom;verticalAlign=top;align=center;html=1;fontSize=12;fontStyle=0;aspect=fixed;pointerEvents=1;shape=mxgraph.aws4.application_load_balancer;" parent="zWWZtWSFwz_C1q-5I-bs-10" vertex="1">
          <mxGeometry x="20" y="320" width="48" height="48" as="geometry" />
        </mxCell>
        <mxCell id="79KChEGmRv6Rq6miHfK4-19" value="" style="edgeStyle=none;curved=1;rounded=0;orthogonalLoop=1;jettySize=auto;html=1;fontSize=12;startSize=8;endSize=8;" parent="Ro--WaHBfZd03FYafhZy-1" source="79KChEGmRv6Rq6miHfK4-15" target="79KChEGmRv6Rq6miHfK4-16" edge="1">
          <mxGeometry relative="1" as="geometry" />
        </mxCell>
        <mxCell id="79KChEGmRv6Rq6miHfK4-15" value="" style="sketch=0;points=[[0,0,0],[0.25,0,0],[0.5,0,0],[0.75,0,0],[1,0,0],[0,1,0],[0.25,1,0],[0.5,1,0],[0.75,1,0],[1,1,0],[0,0.25,0],[0,0.5,0],[0,0.75,0],[1,0.25,0],[1,0.5,0],[1,0.75,0]];points=[[0,0,0],[0.25,0,0],[0.5,0,0],[0.75,0,0],[1,0,0],[0,1,0],[0.25,1,0],[0.5,1,0],[0.75,1,0],[1,1,0],[0,0.25,0],[0,0.5,0],[0,0.75,0],[1,0.25,0],[1,0.5,0],[1,0.75,0]];outlineConnect=0;fontColor=#232F3E;fillColor=#E7157B;strokeColor=#ffffff;dashed=0;verticalLabelPosition=bottom;verticalAlign=top;align=center;html=1;fontSize=12;fontStyle=0;aspect=fixed;shape=mxgraph.aws4.resourceIcon;resIcon=mxgraph.aws4.cloudwatch_2;" parent="Ro--WaHBfZd03FYafhZy-1" vertex="1">
          <mxGeometry x="480" y="820" width="48" height="48" as="geometry" />
        </mxCell>
        <mxCell id="79KChEGmRv6Rq6miHfK4-16" value="" style="sketch=0;points=[[0,0,0],[0.25,0,0],[0.5,0,0],[0.75,0,0],[1,0,0],[0,1,0],[0.25,1,0],[0.5,1,0],[0.75,1,0],[1,1,0],[0,0.25,0],[0,0.5,0],[0,0.75,0],[1,0.25,0],[1,0.5,0],[1,0.75,0]];outlineConnect=0;fontColor=#232F3E;fillColor=#E7157B;strokeColor=#ffffff;dashed=0;verticalLabelPosition=bottom;verticalAlign=top;align=center;html=1;fontSize=12;fontStyle=0;aspect=fixed;shape=mxgraph.aws4.resourceIcon;resIcon=mxgraph.aws4.sns;" parent="Ro--WaHBfZd03FYafhZy-1" vertex="1">
          <mxGeometry x="280" y="820" width="50" height="50" as="geometry" />
        </mxCell>
        <mxCell id="79KChEGmRv6Rq6miHfK4-24" value="" style="endArrow=classic;html=1;rounded=0;fontSize=12;startSize=8;endSize=8;curved=1;entryX=0.75;entryY=0;entryDx=0;entryDy=0;entryPerimeter=0;" parent="Ro--WaHBfZd03FYafhZy-1" source="nn1KmG_tg4tDZL_l4DAi-13" target="79KChEGmRv6Rq6miHfK4-15" edge="1">
          <mxGeometry width="50" height="50" relative="1" as="geometry">
            <mxPoint x="470" y="610" as="sourcePoint" />
            <mxPoint x="520" y="560" as="targetPoint" />
          </mxGeometry>
        </mxCell>
        <mxCell id="THCJKn3xnFxvYBGwDqAV-17" value="" style="sketch=0;points=[[0,0,0],[0.25,0,0],[0.5,0,0],[0.75,0,0],[1,0,0],[0,1,0],[0.25,1,0],[0.5,1,0],[0.75,1,0],[1,1,0],[0,0.25,0],[0,0.5,0],[0,0.75,0],[1,0.25,0],[1,0.5,0],[1,0.75,0]];outlineConnect=0;fontColor=#232F3E;fillColor=#8C4FFF;strokeColor=#ffffff;dashed=0;verticalLabelPosition=bottom;verticalAlign=top;align=center;html=1;fontSize=12;fontStyle=0;aspect=fixed;shape=mxgraph.aws4.resourceIcon;resIcon=mxgraph.aws4.route_53;" parent="zWWZtWSFwz_C1q-5I-bs-9" vertex="1">
          <mxGeometry x="10" y="420" width="30" height="30" as="geometry" />
        </mxCell>
        <mxCell id="THCJKn3xnFxvYBGwDqAV-33" value="" style="edgeStyle=none;curved=1;rounded=0;orthogonalLoop=1;jettySize=auto;html=1;fontSize=12;startSize=8;endSize=8;" parent="1" target="THCJKn3xnFxvYBGwDqAV-17" edge="1">
          <mxGeometry relative="1" as="geometry">
            <mxPoint x="-372.5" y="-369.4927536231885" as="sourcePoint" />
          </mxGeometry>
        </mxCell>
        <mxCell id="nn1KmG_tg4tDZL_l4DAi-2" value="" style="outlineConnect=0;dashed=0;verticalLabelPosition=bottom;verticalAlign=top;align=center;html=1;shape=mxgraph.aws3.management_console;fillColor=#D2D3D3;gradientColor=none;" parent="1" vertex="1">
          <mxGeometry x="-430" y="-430" width="50" height="55" as="geometry" />
        </mxCell>
        <mxCell id="79KChEGmRv6Rq6miHfK4-28" value="&lt;b&gt;&lt;i&gt;Client&lt;/i&gt;&lt;/b&gt;" style="text;html=1;align=center;verticalAlign=middle;resizable=0;points=[];autosize=1;strokeColor=none;fillColor=none;fontSize=16;" parent="1" vertex="1">
          <mxGeometry x="-440" y="-370" width="70" height="30" as="geometry" />
        </mxCell>
        <mxCell id="79KChEGmRv6Rq6miHfK4-25" value="" style="sketch=0;outlineConnect=0;fontColor=#232F3E;gradientColor=none;fillColor=#232F3D;strokeColor=none;dashed=0;verticalLabelPosition=bottom;verticalAlign=top;align=center;html=1;fontSize=12;fontStyle=0;aspect=fixed;pointerEvents=1;shape=mxgraph.aws4.client;" parent="1" vertex="1">
          <mxGeometry x="-440" y="-48.999999999999915" width="50" height="48.72" as="geometry" />
        </mxCell>
        <mxCell id="79KChEGmRv6Rq6miHfK4-33" value="" style="edgeStyle=none;curved=1;rounded=0;orthogonalLoop=1;jettySize=auto;html=1;fontSize=12;startSize=8;endSize=8;" parent="1" source="79KChEGmRv6Rq6miHfK4-18" target="79KChEGmRv6Rq6miHfK4-25" edge="1">
          <mxGeometry relative="1" as="geometry" />
        </mxCell>
        <mxCell id="79KChEGmRv6Rq6miHfK4-18" value="" style="dashed=0;outlineConnect=0;html=1;align=center;labelPosition=center;verticalLabelPosition=bottom;verticalAlign=top;shape=mxgraph.weblogos.gmail" parent="1" vertex="1">
          <mxGeometry x="-320" y="90" width="30" height="27.4" as="geometry" />
        </mxCell>
        <mxCell id="79KChEGmRv6Rq6miHfK4-20" value="" style="edgeStyle=none;curved=1;rounded=0;orthogonalLoop=1;jettySize=auto;html=1;fontSize=12;startSize=8;endSize=8;" parent="1" source="79KChEGmRv6Rq6miHfK4-16" target="79KChEGmRv6Rq6miHfK4-18" edge="1">
          <mxGeometry relative="1" as="geometry" />
        </mxCell>
        <mxCell id="79KChEGmRv6Rq6miHfK4-27" value="&lt;b&gt;&lt;i&gt;Admin&lt;/i&gt;&lt;/b&gt;" style="text;html=1;align=center;verticalAlign=middle;resizable=0;points=[];autosize=1;strokeColor=none;fillColor=none;fontSize=16;" parent="1" vertex="1">
          <mxGeometry x="-450" width="70" height="30" as="geometry" />
        </mxCell>
        <mxCell id="79KChEGmRv6Rq6miHfK4-34" value="&lt;b&gt;&lt;i&gt;Gmail&lt;/i&gt;&lt;/b&gt;" style="text;html=1;align=center;verticalAlign=middle;resizable=0;points=[];autosize=1;strokeColor=none;fillColor=none;fontSize=16;" parent="1" vertex="1">
          <mxGeometry x="-340" y="117.4" width="70" height="30" as="geometry" />
        </mxCell>
      </root>
    </mxGraphModel>
  </diagram>
</mxfile>
